<?xml version="1.0" standalone="no"?>
<!DOCTYPE svg PUBLIC "-//W3C//DTD SVG 20010904//EN"
 "http://www.w3.org/TR/2001/REC-SVG-20010904/DTD/svg10.dtd">
<svg version="1.0" xmlns="http://www.w3.org/2000/svg"
 width="260.000000pt" height="260.000000pt" viewBox="0 0 260.000000 260.000000"
 preserveAspectRatio="xMidYMid meet">
<metadata>
Created by potrace 1.11, written by Peter Selinger 2001-2013
</metadata>
<g transform="translate(0.000000,260.000000) scale(0.100000,-0.100000)"
fill="#000000" stroke="none">
<path d="M899 2577 c-14 -12 -40 -33 -58 -47 -43 -32 -132 -168 -165 -252 -38
-97 -67 -229 -75 -337 l-6 -94 -144 -92 c-230 -147 -331 -252 -390 -404 -71
-184 -54 -362 51 -529 40 -62 131 -152 155 -152 7 0 13 -4 13 -8 0 -19 178
-80 240 -82 3 0 2 -66 -1 -147 -5 -120 -11 -160 -29 -208 -25 -64 -34 -74 -92
-105 -45 -24 -127 -26 -169 -5 -35 18 -31 31 12 40 17 4 47 23 67 42 34 34 37
40 40 107 5 85 -18 134 -73 160 -134 64 -275 -38 -275 -198 1 -54 5 -68 38
-116 60 -89 178 -150 289 -150 51 0 71 5 115 31 71 41 96 65 123 119 38 77 51
166 54 388 1 41 5 54 19 59 9 3 54 23 99 44 98 47 161 112 202 209 l28 65 114
-1 c142 0 191 -6 304 -39 126 -36 172 -57 184 -81 12 -27 70 -54 118 -56 25 0
75 -20 148 -57 61 -31 112 -59 115 -62 3 -3 34 -21 70 -40 36 -19 67 -37 70
-40 3 -3 25 -16 50 -30 25 -13 47 -26 50 -29 21 -21 228 -130 247 -130 7 0 -2
-15 -22 -34 -65 -63 -41 -130 57 -156 24 -7 55 -8 81 -3 l42 9 3 112 3 112
-33 0 c-61 1 -166 47 -335 148 -93 55 -224 130 -293 167 -69 37 -125 68 -125
69 0 0 12 13 26 28 l27 28 58 -31 c33 -18 136 -78 229 -134 183 -111 283 -153
383 -162 l63 -6 -3 37 -3 38 -55 3 c-84 5 -159 36 -329 138 -86 52 -196 116
-244 143 -74 41 -87 52 -83 69 3 11 6 26 6 33 0 18 20 15 59 -9 25 -15 31 -23
22 -32 -6 -6 -11 -19 -11 -29 0 -23 37 -24 61 -2 17 15 20 15 46 -3 75 -52
265 -154 323 -173 63 -21 176 -30 199 -16 6 4 11 20 11 36 0 28 -1 29 -50 25
-101 -6 -184 25 -362 134 l-106 66 14 27 c8 16 17 28 19 28 2 0 46 -22 97 -49
152 -80 258 -105 347 -81 38 10 41 13 41 46 0 30 -3 35 -17 29 -34 -13 -103
-22 -108 -15 -3 4 9 14 26 21 23 9 38 27 56 66 14 29 29 53 34 53 5 0 9 71 8
168 l0 167 -39 -138 c-21 -76 -40 -140 -42 -141 -1 -2 -46 0 -98 4 -80 5 -106
12 -165 41 -38 19 -75 39 -81 44 -6 6 -28 19 -50 30 -21 11 -41 22 -44 25 -3
3 -18 13 -35 22 -28 15 -30 22 -33 77 -3 59 -4 61 -30 61 -21 0 -30 -7 -42
-36 l-15 -35 -80 42 c-119 62 -125 66 -121 92 3 23 -12 89 -23 97 -3 3 -19 30
-34 61 -25 50 -34 81 -36 127 -1 6 -12 12 -26 12 -25 0 -37 -27 -75 -177 -6
-24 -13 -43 -16 -43 -2 0 -31 11 -64 25 -166 70 -349 108 -522 109 -49 1 -88
3 -88 7 0 3 17 23 38 45 89 91 155 204 187 319 44 163 23 438 -39 500 -23 23
-96 19 -127 -8z m83 -264 c10 -9 18 -29 18 -44 0 -32 -34 -124 -53 -144 -6 -7
-28 -33 -47 -58 -28 -36 -135 -119 -196 -151 -13 -7 -7 31 28 154 34 125 78
195 147 237 43 27 78 29 103 6z m118 -677 c99 -18 215 -53 300 -89 52 -22 96
-41 97 -42 5 -3 -18 -75 -24 -75 -3 0 -36 11 -74 25 -38 13 -69 22 -69 19 0
-3 -6 -2 -12 3 -7 4 -19 9 -25 10 -7 2 -19 5 -25 6 -67 19 -98 24 -188 34
-126 14 -250 7 -393 -20 -8 -1 -11 13 -9 43 3 60 26 81 93 87 30 2 55 6 57 7
5 6 236 -1 272 -8z m540 -84 c14 -31 9 -35 -23 -23 -31 12 -40 26 -32 51 5 16
9 18 25 8 10 -7 24 -23 30 -36z m-1065 -128 l-6 -51 -69 -27 c-90 -36 -161
-101 -190 -176 -31 -76 -31 -178 -1 -245 34 -76 114 -150 149 -138 20 7 14 30
-27 106 -29 53 -38 81 -35 105 6 51 48 107 97 131 66 32 70 30 63 -36 -3 -32
-8 -116 -11 -188 -3 -71 -8 -151 -11 -178 l-6 -48 -36 5 c-97 13 -209 70 -250
127 -7 10 -18 24 -25 31 -29 31 -60 114 -65 173 -12 153 72 304 230 411 24 16
45 32 46 37 2 4 9 7 15 7 7 0 39 17 72 38 l60 38 3 -35 c2 -20 1 -59 -3 -87z
m1028 30 c18 -9 33 -18 35 -19 2 -2 -5 -16 -15 -33 -18 -29 -20 -30 -51 -16
-29 12 -32 17 -26 41 12 50 12 50 57 27z m-371 -29 l106 -27 -38 -38 c-36 -36
-40 -37 -82 -30 -113 22 -241 27 -369 15 -60 -5 -87 -3 -130 12 -51 17 -54 20
-51 49 3 31 3 31 85 42 45 5 147 9 227 7 119 -2 164 -7 252 -30z m600 -94 c63
-34 75 -45 71 -61 -3 -11 -9 -23 -14 -26 -5 -3 -52 15 -103 40 -51 25 -98 46
-104 46 -22 0 -23 21 -2 50 l22 30 26 -18 c15 -10 61 -38 104 -61z m-114 -97
c150 -73 154 -76 147 -102 -3 -15 -10 -30 -13 -34 -4 -4 -79 28 -166 72 -87
44 -166 80 -177 80 -23 0 -24 4 -2 41 22 36 18 37 211 -57z m-413 7 c138 -38
203 -64 383 -153 l144 -71 -7 -36 c-4 -20 -8 -37 -10 -39 -1 -2 -47 19 -101
46 -135 66 -293 128 -387 152 -82 20 -333 46 -368 37 -15 -4 -25 5 -45 39 -14
24 -30 44 -35 44 -5 0 -9 5 -9 11 0 8 45 10 163 6 140 -4 177 -9 272 -36z
m691 -62 c4 -8 1 -8 -14 0 -12 6 -24 16 -28 22 -4 8 -1 8 14 0 12 -6 24 -16
28 -22z m283 -103 c-5 -6 -9 -23 -9 -38 0 -15 -3 -28 -6 -28 -4 0 -37 19 -74
41 -59 37 -68 47 -81 88 l-14 46 97 -50 c61 -31 93 -54 87 -59z m-1589 58 c0
-2 -9 -8 -19 -14 -16 -8 -20 -7 -18 9 1 12 7 17 19 13 10 -2 18 -6 18 -8z
m1343 -104 c0 -17 -3 -33 -5 -36 -6 -5 -86 36 -105 53 -7 6 -11 19 -8 27 3 9
7 23 10 32 4 13 13 11 58 -14 46 -27 52 -33 50 -62z m-780 49 c105 -21 230
-62 331 -108 l70 -32 -31 -19 c-17 -10 -34 -23 -37 -28 -4 -6 -34 -1 -77 14
-83 28 -220 64 -264 70 -16 2 -84 6 -150 10 -66 4 -120 7 -121 8 -1 0 -4 24
-7 53 l-6 52 100 -1 c58 0 140 -8 192 -19z m-471 -61 l15 -53 -71 -26 c-39
-14 -74 -24 -78 -22 -4 2 -5 29 -2 61 5 57 13 68 59 84 51 16 62 10 77 -44z
m8 -133 c0 -26 -47 -118 -72 -142 -31 -29 -69 -53 -83 -53 -13 0 4 133 17 142
44 31 138 67 138 53z"/>
</g>
</svg>
